# xmcd
#
# Track frame offsets:
#	150
#	14481
#	36079
#	49818
#	68705
#	82407
#	96313
#	114014
#	137984
#	155724
#	166480
#	181693
#	199212
#	212121
#	223944
#	239196
#
# Disc length: 3544 seconds
#
# Revision: 0
# Processed by: cddbd v1.4PL0 Copyright (c) Steve Scherf et al.
# Submitted via: dBpowerAMP V4.0
#
DISCID=f50dd610
DTITLE=Various Artist - Classic Country
DYEAR=1900
DGENRE=
TTITLE0=track1
TTITLE1=track2
TTITLE2=track3
TTITLE3=track4
TTITLE4=track5
TTITLE5=track6
TTITLE6=track7
TTITLE7=track8
TTITLE8=track9
TTITLE9=track10
TTITLE10=track11
TTITLE11=track12
TTITLE12=track13
TTITLE13=track14
TTITLE14=track15
TTITLE15=track16
EXTD=Classic Country
EXTT0=
EXTT1=
EXTT2=
EXTT3=
EXTT4=
EXTT5=
EXTT6=
EXTT7=
EXTT8=
EXTT9=
EXTT10=
EXTT11=
EXTT12=
EXTT13=
EXTT14=
EXTT15=
PLAYORDER=
